<?xml version="1.0" encoding="UTF-8"?>
<svg version="1.1"
  xmlns="http://www.w3.org/2000/svg" width="106" height="116">
  <path d="M0 0 C0.85287094 -0.00191345 1.70574188 -0.0038269 2.5844574 -0.00579834 C4.38402604 -0.00715715 6.18360458 -0.00348195 7.9831543 0.00488281 C10.73964384 0.01559992 13.49548363 0.00497056 16.25195312 -0.0078125 C18.00130352 -0.00649111 19.75065352 -0.00392914 21.5 0 C22.32504532 -0.00404846 23.15009064 -0.00809692 24.00013733 -0.01226807 C27.90637329 0.01981096 29.86022965 0.05004893 33.18359375 2.265625 C32.60856189 7.6320931 31.68984755 12.70587104 30.22265625 17.90625 C30.03142181 18.59571716 29.84018738 19.28518433 29.64315796 19.99554443 C29.24094839 21.43827981 28.83577532 22.88019209 28.42773438 24.32128906 C27.80700466 26.52125698 27.20192139 28.72514806 26.59765625 30.9296875 C26.20276153 32.33880504 25.8069598 33.74766879 25.41015625 35.15625 C25.05518066 36.42500977 24.70020508 37.69376953 24.33447266 39.00097656 C22.41853601 44.43583123 22.41853601 44.43583123 20.18359375 46.265625 C17.11826947 46.83873127 14.10195919 46.7776336 10.9921875 46.7265625 C10.09113785 46.72564606 9.1900882 46.72472961 8.26173401 46.7237854 C6.35778533 46.71774488 4.45384636 46.70198534 2.55004883 46.67724609 C-0.37128523 46.64072029 -3.29135203 46.63622678 -6.21289062 46.63671875 C-8.06120893 46.62688849 -9.90951861 46.61523189 -11.7578125 46.6015625 C-12.63490372 46.59933685 -13.51199493 46.59711121 -14.41566467 46.59481812 C-20.58426354 46.49776771 -20.58426354 46.49776771 -22.81640625 44.265625 C-23.26108663 38.80112119 -22.24958496 34.18716129 -20.76953125 28.99609375 C-20.45082062 27.85277336 -20.45082062 27.85277336 -20.12567139 26.68635559 C-19.67643081 25.08749179 -19.22235383 23.48997971 -18.76367188 21.89379883 C-18.06484237 19.44765086 -17.39320708 16.99504538 -16.72265625 14.54101562 C-16.28158004 12.98391175 -15.83892666 11.42725358 -15.39453125 9.87109375 C-15.1964386 9.13779343 -14.99834595 8.4044931 -14.79425049 7.64897156 C-13.34930623 2.74842673 -13.34930623 2.74842673 -11.20629883 0.80688477 C-7.48442957 -0.03603935 -3.79443523 -0.01866492 0 0 Z " fill="#0380FA" transform="translate(40.81640625,14.734375)"/>
  <path d="M0 0 C0.75643295 0.00142502 1.51286591 0.00285004 2.29222107 0.00431824 C3.57849144 -0.00029671 3.57849144 -0.00029671 4.89074707 -0.00500488 C5.81785995 0.00218063 6.74497284 0.00936615 7.70018005 0.01676941 C8.64940842 0.01722763 9.59863678 0.01768585 10.57662964 0.01815796 C12.58486683 0.02118178 14.59310164 0.02907192 16.6013031 0.04142761 C19.68708029 0.05968377 22.77255763 0.06193734 25.85838318 0.06169128 C27.80565142 0.06660633 29.75291761 0.07243459 31.70018005 0.07926941 C33.09388573 0.08093864 33.09388573 0.08093864 34.51574707 0.0826416 C35.37010849 0.08902145 36.22446991 0.09540131 37.10472107 0.10197449 C37.86035843 0.10578629 38.61599579 0.10959808 39.39453125 0.11352539 C41.1337738 0.24723816 41.1337738 0.24723816 42.1337738 1.24723816 C42.33061967 10.29178771 39.12842364 19.15903642 36.6337738 27.74723816 C36.21246555 29.22619555 35.79188712 30.70536105 35.37205505 32.18473816 C32.31739863 42.8799885 32.31739863 42.8799885 31.1337738 45.24723816 C24.88581705 45.2725094 18.63787339 45.2900716 12.38987732 45.3021698 C10.26259366 45.30721114 8.13531349 45.31404407 6.00804138 45.32267761 C2.95749555 45.33475195 -0.09300465 45.3404683 -3.14356995 45.34489441 C-4.57949745 45.35263634 -4.57949745 45.35263634 -6.04443359 45.36053467 C-6.92527115 45.3606102 -7.8061087 45.36068573 -8.71363831 45.36076355 C-9.8827903 45.36409447 -9.8827903 45.36409447 -11.07556152 45.36749268 C-12.8662262 45.24723816 -12.8662262 45.24723816 -13.8662262 44.24723816 C-14.03627342 35.94227438 -11.32734043 27.829385 -9.05543518 19.93083191 C-8.4228869 17.72689275 -7.80686099 15.5187799 -7.19239807 13.30973816 C-6.79427184 11.90321541 -6.39521752 10.49695497 -5.99513245 9.09098816 C-5.63492004 7.82448425 -5.27470764 6.55798035 -4.90357971 5.25309753 C-3.23875787 0.42907153 -3.23875787 0.42907153 0 0 Z " fill="#037FFA" transform="translate(46.86622619628906,63.75276184082031)"/>
  <path d="M0 0 C1.5631897 0.00785522 1.5631897 0.00785522 3.15795898 0.01586914 C4.28266602 0.0190918 5.40737305 0.02231445 6.56616211 0.02563477 C7.75016602 0.03401367 8.93416992 0.04239258 10.15405273 0.05102539 C11.34192383 0.05553711 12.52979492 0.06004883 13.75366211 0.06469727 C16.69967499 0.07652864 19.64558954 0.09301252 22.59155273 0.11352539 C23.45390309 3.57770345 23.65856902 5.95977127 22.70092773 9.39868164 C22.4856543 10.17663086 22.27038086 10.95458008 22.04858398 11.75610352 C21.81526367 12.55467773 21.58194336 13.35325195 21.34155273 14.17602539 C21.12370117 14.9784668 20.90584961 15.7809082 20.68139648 16.60766602 C18.56781728 24.05463367 18.56781728 24.05463367 15.59155273 27.11352539 C13.27905273 27.61523438 13.27905273 27.61523438 10.59155273 27.60961914 C9.13749023 27.61058594 9.13749023 27.61058594 7.65405273 27.61157227 C6.64342773 27.5915918 5.63280273 27.57161133 4.59155273 27.55102539 C3.58092773 27.55811523 2.57030273 27.56520508 1.52905273 27.57250977 C-5.89749527 27.50831753 -5.89749527 27.50831753 -8.22119141 25.71289062 C-9.40844727 24.11352539 -9.40844727 24.11352539 -9.40454102 22.09008789 C-9.22020508 21.31407227 -9.03586914 20.53805664 -8.84594727 19.73852539 C-8.63969727 18.86583008 -8.43344727 17.99313477 -8.22094727 17.09399414 C-3.60733896 0.17003676 -3.60733896 0.17003676 0 0 Z " fill="#0B82F8" transform="translate(74.408447265625,33.886474609375)"/>
  <path d="M0 0 C1.07507813 -0.00128906 2.15015625 -0.00257812 3.2578125 -0.00390625 C4.38960937 -0.00003906 5.52140625 0.00382812 6.6875 0.0078125 C7.81929687 0.00394531 8.95109375 0.00007813 10.1171875 -0.00390625 C11.19226563 -0.00261719 12.26734375 -0.00132813 13.375 0 C14.86580078 0.00169189 14.86580078 0.00169189 16.38671875 0.00341797 C18.6875 0.1328125 18.6875 0.1328125 19.6875 1.1328125 C20.08886559 6.86342122 18.98005703 11.54448876 17.3125 16.9453125 C17.09078125 17.70779297 16.8690625 18.47027344 16.640625 19.25585938 C14.95402378 24.86628872 14.95402378 24.86628872 12.6875 27.1328125 C10.38085938 27.39160156 10.38085938 27.39160156 7.53125 27.3984375 C5.99791016 27.40230469 5.99791016 27.40230469 4.43359375 27.40625 C3.36238281 27.39851563 2.29117187 27.39078125 1.1875 27.3828125 C-0.41931641 27.39441406 -0.41931641 27.39441406 -2.05859375 27.40625 C-3.08082031 27.40367188 -4.10304688 27.40109375 -5.15625 27.3984375 C-6.09662109 27.39618164 -7.03699219 27.39392578 -8.00585938 27.39160156 C-10.3125 27.1328125 -10.3125 27.1328125 -12.3125 25.1328125 C-11.96168398 19.36314192 -10.59802479 14.16922137 -8.8125 8.6953125 C-8.58691406 7.97666016 -8.36132812 7.25800781 -8.12890625 6.51757812 C-6.05088894 0.00686709 -6.05088894 0.00686709 0 0 Z " fill="#3696F5" transform="translate(21.3125,63.8671875)"/>
  <path d="M0 0 C0.75643295 0.00142502 1.51286591 0.00285004 2.29222107 0.00431824 C3.57849144 -0.00029671 3.57849144 -0.00029671 4.89074707 -0.00500488 C5.81785995 0.00218063 6.74497284 0.00936615 7.70018005 0.01676941 C8.64940842 0.01722763 9.59863678 0.01768585 10.57662964 0.01815796 C12.58486683 0.02118178 14.59310164 0.02907192 16.6013031 0.04142761 C19.68708029 0.05968377 22.77255763 0.06193734 25.85838318 0.06169128 C27.80565142 0.06660633 29.75291761 0.07243459 31.70018005 0.07926941 C33.09388573 0.08093864 33.09388573 0.08093864 34.51574707 0.0826416 C35.37010849 0.08902145 36.22446991 0.09540131 37.10472107 0.10197449 C37.86035843 0.10578629 38.61599579 0.10959808 39.39453125 0.11352539 C41.1337738 0.24723816 41.1337738 0.24723816 42.1337738 1.24723816 C42.08191092 8.56273391 40.17388946 15.4253131 38.0712738 22.37223816 C37.78961365 23.32872253 37.50795349 24.28520691 37.21775818 25.27067566 C36.53099896 27.59867303 35.83627434 29.92395249 35.1337738 32.24723816 C34.8037738 32.24723816 34.4737738 32.24723816 34.1337738 32.24723816 C34.72979927 25.51283548 35.98578078 19.2176509 37.6962738 12.68473816 C38.5006488 9.57036316 39.3050238 6.45598816 40.1337738 3.24723816 C26.6037738 3.57723816 13.0737738 3.90723816 -0.8662262 4.24723816 C-4.93366773 17.12746967 -8.59024907 30.14332965 -11.8662262 43.24723816 C1.9937738 43.24723816 15.8537738 43.24723816 30.1337738 43.24723816 C30.7937738 40.27723816 31.4537738 37.30723816 32.1337738 34.24723816 C32.7937738 33.91723816 33.4537738 33.58723816 34.1337738 33.24723816 C33.82483448 34.87291886 33.51150431 36.49776564 33.1962738 38.12223816 C33.02225037 39.02716003 32.84822693 39.93208191 32.66893005 40.86442566 C32.1337738 43.24723816 32.1337738 43.24723816 31.1337738 45.24723816 C24.88581705 45.2725094 18.63787339 45.2900716 12.38987732 45.3021698 C10.26259366 45.30721114 8.13531349 45.31404407 6.00804138 45.32267761 C2.95749555 45.33475195 -0.09300465 45.3404683 -3.14356995 45.34489441 C-4.57949745 45.35263634 -4.57949745 45.35263634 -6.04443359 45.36053467 C-6.92527115 45.3606102 -7.8061087 45.36068573 -8.71363831 45.36076355 C-9.8827903 45.36409447 -9.8827903 45.36409447 -11.07556152 45.36749268 C-12.8662262 45.24723816 -12.8662262 45.24723816 -13.8662262 44.24723816 C-14.03627342 35.94227438 -11.32734043 27.829385 -9.05543518 19.93083191 C-8.4228869 17.72689275 -7.80686099 15.5187799 -7.19239807 13.30973816 C-6.79427184 11.90321541 -6.39521752 10.49695497 -5.99513245 9.09098816 C-5.63492004 7.82448425 -5.27470764 6.55798035 -4.90357971 5.25309753 C-3.23875787 0.42907153 -3.23875787 0.42907153 0 0 Z " fill="#ADCDED" transform="translate(46.86622619628906,63.75276184082031)"/>
  <path d="M0 0 C0.85287094 -0.00191345 1.70574188 -0.0038269 2.5844574 -0.00579834 C4.38402604 -0.00715715 6.18360458 -0.00348195 7.9831543 0.00488281 C10.73964384 0.01559992 13.49548363 0.00497056 16.25195312 -0.0078125 C18.00130352 -0.00649111 19.75065352 -0.00392914 21.5 0 C22.32504532 -0.00404846 23.15009064 -0.00809692 24.00013733 -0.01226807 C27.90637329 0.01981096 29.86022965 0.05004893 33.18359375 2.265625 C32.60856189 7.6320931 31.68984755 12.70587104 30.22265625 17.90625 C30.03142181 18.59571716 29.84018738 19.28518433 29.64315796 19.99554443 C29.24094839 21.43827981 28.83577532 22.88019209 28.42773438 24.32128906 C27.80700466 26.52125698 27.20192139 28.72514806 26.59765625 30.9296875 C26.20276153 32.33880504 25.8069598 33.74766879 25.41015625 35.15625 C25.05518066 36.42500977 24.70020508 37.69376953 24.33447266 39.00097656 C22.41853601 44.43583123 22.41853601 44.43583123 20.18359375 46.265625 C17.11826947 46.83873127 14.10195919 46.7776336 10.9921875 46.7265625 C10.09113785 46.72564606 9.1900882 46.72472961 8.26173401 46.7237854 C6.35778533 46.71774488 4.45384636 46.70198534 2.55004883 46.67724609 C-0.37128523 46.64072029 -3.29135203 46.63622678 -6.21289062 46.63671875 C-8.06120893 46.62688849 -9.90951861 46.61523189 -11.7578125 46.6015625 C-12.63490372 46.59933685 -13.51199493 46.59711121 -14.41566467 46.59481812 C-20.58426354 46.49776771 -20.58426354 46.49776771 -22.81640625 44.265625 C-23.26108663 38.80112119 -22.24958496 34.18716129 -20.76953125 28.99609375 C-20.45082062 27.85277336 -20.45082062 27.85277336 -20.12567139 26.68635559 C-19.67643081 25.08749179 -19.22235383 23.48997971 -18.76367188 21.89379883 C-18.06484237 19.44765086 -17.39320708 16.99504538 -16.72265625 14.54101562 C-16.28158004 12.98391175 -15.83892666 11.42725358 -15.39453125 9.87109375 C-15.1964386 9.13779343 -14.99834595 8.4044931 -14.79425049 7.64897156 C-13.34930623 2.74842673 -13.34930623 2.74842673 -11.20629883 0.80688477 C-7.48442957 -0.03603935 -3.79443523 -0.01866492 0 0 Z M-12.81640625 9.265625 C-14.1091969 12.41054211 -14.1091969 12.41054211 -14.87890625 15.765625 C-15.19472656 16.98378906 -15.51054687 18.20195313 -15.8359375 19.45703125 C-16.15949219 20.71386719 -16.48304687 21.97070312 -16.81640625 23.265625 C-17.89526706 26.85070543 -18.98338148 30.43265584 -20.08203125 34.01171875 C-21.07325147 37.84770996 -21.07325147 37.84770996 -20.81640625 44.265625 C-6.95640625 44.265625 6.90359375 44.265625 21.18359375 44.265625 C22.66859375 38.325625 22.66859375 38.325625 24.18359375 32.265625 C26.93170166 21.82281494 26.93170166 21.82281494 28.19116211 19.03686523 C29.35650941 15.78277981 29.59978595 12.89845377 29.80859375 9.453125 C29.88335937 8.29167969 29.958125 7.13023438 30.03515625 5.93359375 C30.08414063 5.05316406 30.133125 4.17273438 30.18359375 3.265625 C24.86348653 3.1170293 19.54459296 3.00829494 14.22290039 2.93603516 C12.41376703 2.90590723 10.60477921 2.86499537 8.79614258 2.81298828 C6.19185478 2.73999093 3.58950098 2.70613102 0.984375 2.6796875 C-0.22372078 2.63323593 -0.22372078 2.63323593 -1.45622253 2.58584595 C-7.58462826 2.58219357 -9.51334231 4.11364117 -12.81640625 9.265625 Z " fill="#D1E1F1" transform="translate(40.81640625,14.734375)"/>
  <path d="M0 0 C1.5631897 0.00785522 1.5631897 0.00785522 3.15795898 0.01586914 C4.28266602 0.0190918 5.40737305 0.02231445 6.56616211 0.02563477 C7.75016602 0.03401367 8.93416992 0.04239258 10.15405273 0.05102539 C11.34192383 0.05553711 12.52979492 0.06004883 13.75366211 0.06469727 C16.69967499 0.07652864 19.64558954 0.09301252 22.59155273 0.11352539 C23.45390309 3.57770345 23.65856902 5.95977127 22.70092773 9.39868164 C22.4856543 10.17663086 22.27038086 10.95458008 22.04858398 11.75610352 C21.81526367 12.55467773 21.58194336 13.35325195 21.34155273 14.17602539 C21.12370117 14.9784668 20.90584961 15.7809082 20.68139648 16.60766602 C18.56781728 24.05463367 18.56781728 24.05463367 15.59155273 27.11352539 C13.27905273 27.61523438 13.27905273 27.61523438 10.59155273 27.60961914 C9.13749023 27.61058594 9.13749023 27.61058594 7.65405273 27.61157227 C6.64342773 27.5915918 5.63280273 27.57161133 4.59155273 27.55102539 C3.58092773 27.55811523 2.57030273 27.56520508 1.52905273 27.57250977 C-5.89749527 27.50831753 -5.89749527 27.50831753 -8.22119141 25.71289062 C-9.40844727 24.11352539 -9.40844727 24.11352539 -9.40454102 22.09008789 C-9.22020508 21.31407227 -9.03586914 20.53805664 -8.84594727 19.73852539 C-8.63969727 18.86583008 -8.43344727 17.99313477 -8.22094727 17.09399414 C-3.60733896 0.17003676 -3.60733896 0.17003676 0 0 Z M-1.40844727 1.11352539 C-2.21282227 3.98040039 -3.01719727 6.84727539 -3.84594727 9.80102539 C-4.09787842 10.69523193 -4.34980957 11.58943848 -4.609375 12.51074219 C-6.26741912 18.25514901 -6.26741912 18.25514901 -7.40844727 24.11352539 C-6.3920775 25.35273751 -6.3920775 25.35273751 -4.27539062 25.22705078 C-2.90072632 25.21919556 -2.90072632 25.21919556 -1.49829102 25.21118164 C-0.50893555 25.20795898 0.48041992 25.20473633 1.49975586 25.20141602 C3.06113281 25.18884766 3.06113281 25.18884766 4.65405273 25.17602539 C5.69883789 25.17151367 6.74362305 25.16700195 7.82006836 25.16235352 C10.41061933 25.15052452 13.00105832 25.13404228 15.59155273 25.11352539 C17.53471231 20.76999221 19.13550293 16.62322991 20.27905273 11.98852539 C20.53041992 10.99594727 20.78178711 10.00336914 21.04077148 8.98071289 C21.74876015 5.7817566 21.74876015 5.7817566 21.59155273 1.11352539 C14.00155273 1.11352539 6.41155273 1.11352539 -1.40844727 1.11352539 Z " fill="#BDD7F0" transform="translate(74.408447265625,33.886474609375)"/>
  <path d="M0 0 C13.86 0 27.72 0 42 0 C42 13.50924538 42 13.50924538 40.3203125 19.2265625 C39.96839844 20.44214844 39.61648437 21.65773438 39.25390625 22.91015625 C38.88136719 24.13605469 38.50882813 25.36195312 38.125 26.625 C37.76019531 27.88957031 37.39539063 29.15414062 37.01953125 30.45703125 C34.29317059 39.70682941 34.29317059 39.70682941 32 42 C32.43482026 36.52126479 33.2593685 31.87900521 35.10546875 26.72265625 C36.28065712 23.14577289 37.209485 19.52576765 38.125 15.875 C38.29555908 15.205896 38.46611816 14.53679199 38.6418457 13.84741211 C39.69897039 9.58369338 40.40498196 5.34891057 41 1 C35.66085189 1.04415036 30.32288669 1.11397986 24.984375 1.20751953 C23.16871561 1.2357271 21.35293348 1.25694274 19.53710938 1.27099609 C16.92514211 1.29242909 14.31465026 1.33907885 11.703125 1.390625 C10.89256653 1.39185364 10.08200806 1.39308228 9.24688721 1.39434814 C5.49741247 1.49156815 3.43038038 1.65520006 0.45605469 4.03808594 C-0.02444336 4.68551758 -0.50494141 5.33294922 -1 6 C-0.67 4.02 -0.34 2.04 0 0 Z " fill="#73AEE8" transform="translate(30,17)"/>
  <path d="M0 0 C1.5631897 0.00785522 1.5631897 0.00785522 3.15795898 0.01586914 C4.28266602 0.0190918 5.40737305 0.02231445 6.56616211 0.02563477 C7.75016602 0.03401367 8.93416992 0.04239258 10.15405273 0.05102539 C11.34192383 0.05553711 12.52979492 0.06004883 13.75366211 0.06469727 C16.69967499 0.07652864 19.64558954 0.09301252 22.59155273 0.11352539 C23.70874023 4.82446289 23.70874023 4.82446289 22.65405273 7.42602539 C22.12811523 8.26133789 22.12811523 8.26133789 21.59155273 9.11352539 C21.59155273 6.47352539 21.59155273 3.83352539 21.59155273 1.11352539 C14.00155273 1.11352539 6.41155273 1.11352539 -1.40844727 1.11352539 C-1.73844727 3.42352539 -2.06844727 5.73352539 -2.40844727 8.11352539 C-3.38110352 10.76586914 -3.38110352 10.76586914 -4.47094727 13.05102539 C-4.83317383 13.82317383 -5.19540039 14.59532227 -5.56860352 15.39086914 C-5.84575195 15.9593457 -6.12290039 16.52782227 -6.40844727 17.11352539 C-7.71302544 13.19979086 -6.78501669 11.38133789 -5.53344727 7.48852539 C-5.16477539 6.32063477 -4.79610352 5.15274414 -4.41625977 3.94946289 C-3.06405745 0.14442846 -3.06405745 0.14442846 0 0 Z " fill="#D3DFE9" transform="translate(74.408447265625,33.886474609375)"/>
  <path d="M0 0 C0.33 0 0.66 0 1 0 C1 1.65 1 3.3 1 5 C0.67 5 0.34 5 0 5 C0 3.35 0 1.7 0 0 Z " fill="#E7E7E7" transform="translate(105,34)"/>
</svg>
